# xmcd
#
# Track frame offsets:
#	150
#	20299
#	38068
#	53409
#	73925
#	95557
#	113106
#	131811
#	145957
#	163874
#	181673
#	195040
#	212679
#	227403
#	242689
#	257534
#	275518
#	295390
#
# Disc length: 4159 seconds
#
# Revision: 1
# Processed by: cddbd v1.5.2PL0 Copyright (c) Steve Scherf et al.
# Submitted via: audiograbber 1.83.01
#
DISCID=fa103d12
DTITLE=Various Artist - CMT Number Ones
DYEAR=1900
DGENRE=Country
TTITLE0=Keith Urban - I Told You So
TTITLE1=Faith Hill - Mississippi Girl
TTITLE2=Big and Rich - Save A Horse (Ride A Cowboy)
TTITLE3=Paul Brandt - Convoy
TTITLE4=Sugarland - Stay
TTITLE5=Blake Shelton - Home
TTITLE6=The Road Hammers - I'm A Road Hammer
TTITLE7=Emerson Drive - A Good man
TTITLE8=Leann Rimes - Something's Gotta Give
TTITLE9=Aaron Pritchett - New Frontier
TTITLE10=Corb Lund - Hair In My Eyes Like A Highland Steer
TTITLE11=Dierks Bentley - Every Mile A Memory
TTITLE12=Gord Bamford - Blame It On That Red Dress
TTITLE13=Jasin Blaine - Rock In My Boot
TTITLE14=Jo Dee Messina - My Give A Damn's Busted
TTITLE15=Chris Cummings - Lucy Got Lucky
TTITLE16=Beverly Mahood - The First Day You (Wake Up Alone)
TTITLE17=Chris Cagle - What A Beautiful Day
EXTD=
EXTT0=
EXTT1=
EXTT2=
EXTT3=
EXTT4=
EXTT5=
EXTT6=
EXTT7=
EXTT8=
EXTT9=
EXTT10=
EXTT11=
EXTT12=
EXTT13=
EXTT14=
EXTT15=
EXTT16=
EXTT17=
PLAYORDER=
